<svg fill="none" height="30" viewBox="0 0 145 30" width="145" xmlns="http://www.w3.org/2000/svg" xmlns:xlink="http://www.w3.org/1999/xlink"><clipPath id="a"><path d="m0 0h144.13v30h-144.13z"/></clipPath><g clip-path="url(#a)"><path d="m28.9766 22.5001h4.1352v-21.900002h-4.1352z" fill="#ff5765"/><path d="m42.2583 22.8002c3.8938 0 6.3991-1.98 7.6064-5.31h-4.4069c-.5131 1.11-1.479 1.8-3.1693 1.8-2.0828 0-3.4109-1.14-3.8636-2.91h11.6813v-1.32c0-4.32-3.3203-7.86-7.8177-7.86-4.3466 0-7.8178 3.48-7.8178 7.8s3.0486 7.8 7.7876 7.8zm.0603-11.97c1.5998 0 2.9279.75 3.5014 2.22h-7.1235c.6943-1.32 1.9318-2.22 3.6221-2.22z" fill="#ff5765"/><path d="m58.4522 22.8002c1.962 0 3.5617-.81 4.5578-1.98v1.68h4.1353v-15h-4.1353v1.47c-.9961-1.05-2.5355-1.77-4.4975-1.77-3.4108 0-7.3348 2.49-7.3348 7.8 0 5.28 4.0749 7.8 7.2745 7.8zm.815-3.78c-2.2639 0-4.0448-1.77-4.0448-4.05 0-2.31 1.7809-4.02 4.0448-4.02 2.2638 0 3.8636 1.77 3.8636 4.02s-1.5998 4.05-3.8636 4.05z" fill="#ff5765"/><path d="m77.8268 22.8002c3.2297 0 7.2443-2.52 7.2443-7.8 0-5.31001-3.8938-7.8-7.3047-7.8-2.0525 0-3.5617.84-4.5276 2.01v-1.71h-4.1353v21.9h4.1353v-8.37c.9659 1.11 2.5656 1.77 4.588 1.77zm-.8452-3.78c-2.2638 0-3.8636-1.8-3.8636-4.05s1.5998-4.02 3.8636-4.02c2.3242 0 4.0447 1.71 4.0447 4.02 0 2.28-1.7205 4.05-4.0447 4.05z" fill="#ff5765"/><g fill="#191919"><path d="m86.4023 11.1901h2.5657v11.31h4.1353v-11.31h2.8373v-3.69h-2.8373v-.36c0-2.34.3018-2.7 2.8373-2.7v-3.840002h-.332c-5.0408 0-6.6406 1.620002-6.6406 6.510002v.39h-2.5657z"/><path d="m103.908 22.8002c4.346 0 7.817-3.48 7.817-7.8s-3.471-7.8-7.817-7.8c-4.347 0-7.8182 3.48-7.8182 7.8s3.4712 7.8 7.8182 7.8zm0-3.9c-2.143 0-3.773-1.77-3.773-3.9s1.63-3.9 3.773-3.9c2.082 0 3.803 1.77 3.803 3.9s-1.721 3.9-3.803 3.9z"/><path d="m113.072 22.5002h4.136v-8.19c0-2.52 1.297-3.6 2.867-3.6 1.841 0 2.777 1.14 2.777 3.18v8.61h4.195v-9.15c0-3.87-2.112-6.15-5.704-6.15-1.721 0-3.2.75-4.166 1.98v-1.68h-4.105z"/><path d="m136.2 22.8002c3.893 0 6.399-1.98 7.606-5.31h-4.407c-.513 1.11-1.479 1.8-3.169 1.8-2.083 0-3.411-1.14-3.864-2.91h11.682v-1.32c0-4.32-3.321-7.86-7.818-7.86-4.347 0-7.818 3.48-7.818 7.8s3.049 7.8 7.788 7.8zm.06-11.97c1.6 0 2.928.75 3.501 2.22h-7.123c.694-1.32 1.932-2.22 3.622-2.22z"/><path d="m0 6.5c0-.82842.6757-1.5 1.50922-1.5h10.81608c.8335 0 1.5092.67158 1.5092 1.5v22c0 .8284-.6757 1.5-1.5092 1.5h-10.81608c-.83352 0-1.50922-.6716-1.50922-1.5z"/></g><path d="m5.03125 1.5c0-.828427.6757-1.5 1.50922-1.5h10.81603c.8335 0 1.5093.671573 1.5093 1.5v22c0 .8284-.6758 1.5-1.5093 1.5h-10.81603c-.83352 0-1.50922-.6716-1.50922-1.5z" fill="#ff5765"/></g></svg>